<?xml version="1.0" encoding="UTF-8"?>
<svg width="1200" height="900" viewBox="0 0 1200 900" xmlns="http://www.w3.org/2000/svg" fill="none">
  <rect width="1200" height="900" fill="#fff" rx="12"/>
  <g transform="translate(120 80)">
    <circle cx="280" cy="220" r="180" fill="#E6F2FF" />
    <g transform="translate(200 140)">
      <rect x="40" y="140" width="320" height="180" rx="16" fill="#fff" stroke="#E6EEF8" />
      <g transform="translate(160 40)">
        <circle cx="0" cy="0" r="54" fill="#2f6df6" />
        <path d="M-10 -8c8-6 28-6 36 0" stroke="#fff" stroke-width="4" stroke-linecap="round"/>
        <rect x="-38" y="44" width="76" height="14" rx="6" fill="#fff" />
      </g>
      <g transform="translate(60 40)">
        <rect x="0" y="0" width="110" height="20" rx="8" fill="#f6f8ff" />
        <rect x="0" y="30" width="220" height="12" rx="6" fill="#f0f4ff" />
      </g>
    </g>
    <g transform="translate(540 40)">
      <rect x="0" y="40" width="380" height="260" rx="20" fill="#fff" stroke="#f0f4ff" />
      <g transform="translate(32 64)">
        <circle cx="40" cy="40" r="36" fill="#dc2626" />
        <path d="M60 36c8 4 20 4 28 0" stroke="#fff" stroke-width="4" stroke-linecap="round"/>
        <rect x="92" y="8" width="220" height="34" rx="8" fill="#f6f6f9" />
        <rect x="92" y="58" width="180" height="14" rx="8" fill="#f0f2f6" />
      </g>
    </g>
    <g transform="translate(160 420)">
      <rect x="0" y="0" width="610" height="120" rx="12" fill="#fff" stroke="#eef2f7" />
      <text x="32" y="44" fill="#111827" font-family="Inter, Arial, sans-serif" font-size="22">Contact our specialists for help choosing the perfect tile.</text>
      <g transform="translate(32 62)">
        <rect x="0" y="6" width="190" height="44" rx="10" fill="#dc2626" />
        <text x="24" y="38" fill="#fff" font-family="Inter, Arial, sans-serif" font-size="16">Contact Us</text>
        <rect x="210" y="6" width="160" height="44" rx="10" fill="#fff" stroke="#e6e9ef" />
        <text x="236" y="38" fill="#111827" font-family="Inter, Arial, sans-serif" font-size="16">Call Now</text>
      </g>
    </g>
  </g>
</svg>
